<svg xmlns="http://www.w3.org/2000/svg" xmlns:xlink="http://www.w3.org/1999/xlink" width="100" zoomAndPan="magnify" viewBox="0 0 75 37.5" height="50" preserveAspectRatio="xMidYMid meet" version="1.0"><defs><g/><clipPath id="id1"><path d="M 54.433594 9.902344 L 72.9375 9.902344 L 72.9375 28.40625 L 54.433594 28.40625 Z M 54.433594 9.902344 " clip-rule="nonzero"/></clipPath></defs><g fill="rgb(1.179504%, 59.609985%, 61.959839%)" fill-opacity="1"><g transform="translate(1.975394, 26.545522)"><g><path d="M 2.417969 -0.632812 C 2.804688 -0.292969 3.1875 0.136719 4.089844 0.136719 C 6.148438 0.136719 7.367188 -1.175781 7.367188 -4.703125 C 7.367188 -9.289062 2.824219 -10.21875 2.824219 -13.878906 C 2.824219 -14.804688 3.300781 -15.640625 4.183594 -15.640625 C 4.882812 -15.640625 5.335938 -15.28125 5.539062 -14.667969 L 5.878906 -11.6875 L 6.714844 -11.6875 L 6.714844 -16.386719 L 6.398438 -16.386719 L 5.855469 -15.6875 L 5.808594 -15.640625 C 5.785156 -15.621094 5.765625 -15.621094 5.71875 -15.621094 C 5.652344 -15.621094 5.628906 -15.621094 5.605469 -15.640625 L 5.558594 -15.6875 C 5.289062 -16.070312 4.589844 -16.386719 3.707031 -16.386719 C 1.875 -16.386719 0.65625 -15.28125 0.65625 -13.179688 C 0.65625 -8.5 5.152344 -7.414062 5.152344 -3.027344 C 5.152344 -1.851562 4.703125 -0.746094 3.546875 -0.746094 C 2.621094 -0.746094 2.417969 -1.402344 2.304688 -1.851562 L 2.011719 -4.476562 L 1.175781 -4.476562 L 1.085938 0.226562 L 1.46875 0.226562 L 2.125 -0.632812 L 2.148438 -0.65625 C 2.171875 -0.679688 2.214844 -0.699219 2.261719 -0.699219 C 2.304688 -0.699219 2.351562 -0.679688 2.375 -0.65625 C 2.394531 -0.632812 2.394531 -0.632812 2.417969 -0.632812 Z M 2.417969 -0.632812 "/></g></g></g><g fill="rgb(1.179504%, 59.609985%, 61.959839%)" fill-opacity="1"><g transform="translate(9.954239, 26.545522)"><g><path d="M 7.59375 -16.140625 L 5.832031 -10.011719 L 2.894531 -16.140625 L 0.722656 -16.140625 L 0.722656 -15.574219 L 1.628906 -15.574219 L 1.628906 -0.566406 L 0.722656 -0.566406 L 0.722656 0 L 3.503906 0 L 3.503906 -0.566406 L 2.578125 -0.566406 L 2.578125 -10.714844 L 5.222656 -5.109375 L 7.59375 -13.699219 L 7.59375 -0.542969 L 6.871094 -0.542969 L 6.871094 0 L 10.398438 0 L 10.398438 -0.542969 L 9.855469 -0.542969 L 9.855469 -15.597656 L 10.488281 -15.597656 L 10.488281 -16.140625 Z M 7.59375 -16.140625 "/></g></g></g><g fill="rgb(1.179504%, 59.609985%, 61.959839%)" fill-opacity="1"><g transform="translate(21.798179, 26.545522)"><g><path d="M 2.984375 -0.566406 L 2.261719 -0.566406 L 2.847656 -3.300781 L 6.847656 -3.300781 L 7.324219 -0.566406 L 6.464844 -0.566406 L 6.464844 0 L 10.691406 0 L 10.691406 -0.566406 L 9.878906 -0.566406 L 6.441406 -16.140625 L 5.085938 -16.140625 L 1.265625 -0.566406 L 0.292969 -0.566406 L 0.292969 0 L 2.984375 0 Z M 4.609375 -10.511719 L 4.859375 -12.070312 L 6.667969 -3.910156 L 3.074219 -3.910156 Z M 4.609375 -10.511719 "/></g></g></g><g fill="rgb(1.179504%, 59.609985%, 61.959839%)" fill-opacity="1"><g transform="translate(32.986635, 26.545522)"><g><path d="M 9.585938 -0.566406 C 9.222656 -0.566406 9.132812 -0.996094 9.132812 -1.425781 L 9.132812 -4.40625 C 9.132812 -5.558594 8.65625 -6.375 8.183594 -6.917969 C 7.910156 -7.234375 7.59375 -7.503906 7.234375 -7.730469 C 7.1875 -7.753906 7.164062 -7.777344 7.164062 -7.84375 C 7.164062 -7.910156 7.1875 -7.933594 7.253906 -7.957031 C 7.59375 -8.113281 7.910156 -8.363281 8.183594 -8.746094 C 8.632812 -9.378906 9.109375 -10.421875 9.109375 -12.320312 C 9.109375 -14.941406 7.164062 -16.140625 4.972656 -16.140625 L 1.0625 -16.140625 L 1.0625 -15.574219 L 1.851562 -15.574219 L 1.851562 -0.566406 L 1.085938 -0.566406 L 1.085938 0 L 4.632812 0 L 4.632812 -0.566406 L 4.136719 -0.566406 L 4.136719 -7.527344 L 4.996094 -7.527344 C 6.238281 -7.527344 6.667969 -6.238281 6.667969 -5.425781 C 6.691406 -5.402344 6.691406 -5.335938 6.691406 -5.265625 L 6.691406 -2.304688 C 6.691406 -0.382812 7.640625 0.226562 9.042969 0.226562 C 9.675781 0.226562 10.058594 0.0664062 10.171875 -0.113281 L 9.945312 -0.65625 C 9.855469 -0.585938 9.742188 -0.566406 9.585938 -0.566406 Z M 6.667969 -10.960938 C 6.667969 -9.335938 6.058594 -8.136719 4.996094 -8.136719 L 4.136719 -8.136719 L 4.136719 -15.527344 L 4.996094 -15.527344 C 6.148438 -15.527344 6.667969 -14.128906 6.667969 -12.863281 Z M 6.667969 -10.960938 "/></g></g></g><g fill="rgb(1.179504%, 59.609985%, 61.959839%)" fill-opacity="1"><g transform="translate(44.062077, 26.545522)"><g><path d="M 1.515625 -16.140625 L 0.769531 -16.140625 L 0.769531 -12.320312 L 1.332031 -12.320312 L 1.515625 -13.335938 C 1.515625 -14.761719 2.53125 -15.574219 3.910156 -15.574219 L 4.226562 -15.574219 L 4.226562 -0.609375 L 3.34375 -0.609375 L 3.34375 0 L 7.414062 0 L 7.414062 -0.609375 L 6.554688 -0.609375 L 6.554688 -15.574219 L 6.871094 -15.574219 C 8.226562 -15.574219 9.246094 -14.761719 9.246094 -13.335938 L 9.492188 -12.320312 L 9.992188 -12.320312 L 9.992188 -16.140625 Z M 1.515625 -16.140625 "/></g></g></g><g clip-path="url(#id1)"><path fill="rgb(1.179504%, 59.609985%, 61.959839%)" d="M 72.933594 19.148438 C 72.933594 19.757812 72.875 20.359375 72.757812 20.953125 C 72.636719 21.550781 72.460938 22.128906 72.230469 22.691406 C 71.996094 23.25 71.710938 23.785156 71.375 24.289062 C 71.039062 24.792969 70.652344 25.261719 70.222656 25.691406 C 69.796875 26.121094 69.328125 26.503906 68.824219 26.839844 C 68.316406 27.179688 67.785156 27.464844 67.222656 27.695312 C 66.664062 27.929688 66.082031 28.105469 65.488281 28.222656 C 64.890625 28.339844 64.289062 28.398438 63.683594 28.398438 C 63.074219 28.398438 62.472656 28.339844 61.878906 28.222656 C 61.28125 28.105469 60.703125 27.929688 60.144531 27.695312 C 59.582031 27.464844 59.050781 27.179688 58.542969 26.839844 C 58.039062 26.503906 57.570312 26.121094 57.140625 25.691406 C 56.710938 25.261719 56.328125 24.792969 55.992188 24.289062 C 55.65625 23.785156 55.371094 23.25 55.136719 22.691406 C 54.90625 22.128906 54.730469 21.550781 54.609375 20.953125 C 54.492188 20.359375 54.433594 19.757812 54.433594 19.148438 C 54.433594 18.542969 54.492188 17.941406 54.609375 17.34375 C 54.730469 16.75 54.90625 16.171875 55.136719 15.609375 C 55.371094 15.046875 55.65625 14.515625 55.992188 14.011719 C 56.328125 13.503906 56.710938 13.039062 57.140625 12.609375 C 57.570312 12.179688 58.039062 11.796875 58.542969 11.457031 C 59.050781 11.121094 59.582031 10.835938 60.144531 10.601562 C 60.703125 10.371094 61.28125 10.195312 61.878906 10.078125 C 62.472656 9.957031 63.074219 9.898438 63.683594 9.898438 C 64.289062 9.898438 64.890625 9.957031 65.488281 10.078125 C 66.082031 10.195312 66.664062 10.371094 67.222656 10.601562 C 67.785156 10.835938 68.316406 11.121094 68.824219 11.457031 C 69.328125 11.796875 69.796875 12.179688 70.222656 12.609375 C 70.652344 13.039062 71.039062 13.503906 71.375 14.011719 C 71.710938 14.515625 71.996094 15.046875 72.230469 15.609375 C 72.460938 16.171875 72.636719 16.75 72.757812 17.34375 C 72.875 17.941406 72.933594 18.542969 72.933594 19.148438 Z M 72.933594 19.148438 " fill-opacity="1" fill-rule="nonzero"/></g><path fill="rgb(100%, 85.099792%, 26.669312%)" d="M 63.917969 16.511719 L 63.917969 18.34375 L 63.449219 18.34375 L 63.449219 16.511719 C 62.941406 16.40625 62.5625 15.957031 62.5625 15.417969 C 62.5625 14.800781 63.066406 14.296875 63.683594 14.296875 C 64.300781 14.296875 64.804688 14.800781 64.804688 15.417969 C 64.804688 15.957031 64.421875 16.40625 63.917969 16.511719 Z M 63.917969 16.511719 " fill-opacity="1" fill-rule="nonzero"/><path fill="rgb(100%, 85.099792%, 26.669312%)" d="M 67.867188 22.679688 C 68.074219 21.4375 68.070312 20.152344 67.457031 18.984375 C 66.816406 17.714844 65.417969 16.589844 63.683594 16.621094 C 61.949219 16.589844 60.550781 17.714844 59.910156 18.984375 C 59.296875 20.152344 59.292969 21.4375 59.5 22.679688 Z M 67.867188 22.679688 " fill-opacity="1" fill-rule="nonzero"/><path fill="rgb(96.078491%, 62.348938%, 25.099182%)" d="M 66.585938 19.441406 L 66.578125 19.429688 C 66.152344 18.589844 65.15625 17.605469 63.75 17.605469 C 63.746094 17.605469 63.738281 17.605469 63.726562 17.605469 L 63.726562 21.695312 L 66.992188 21.695312 C 67.050781 20.800781 66.917969 20.074219 66.585938 19.441406 Z M 66.585938 19.441406 " fill-opacity="1" fill-rule="nonzero"/><path fill="rgb(96.078491%, 62.348938%, 25.099182%)" d="M 69.382812 23.15625 C 69.382812 23.519531 69.085938 23.816406 68.722656 23.816406 L 58.644531 23.816406 C 58.28125 23.816406 57.984375 23.519531 57.984375 23.15625 C 57.984375 22.789062 58.28125 22.496094 58.644531 22.496094 L 68.722656 22.496094 C 69.085938 22.496094 69.382812 22.789062 69.382812 23.15625 Z M 69.382812 23.15625 " fill-opacity="1" fill-rule="nonzero"/><path fill="rgb(100%, 85.099792%, 26.669312%)" d="M 69.382812 24.476562 C 69.382812 24.839844 69.085938 25.136719 68.722656 25.136719 L 58.644531 25.136719 C 58.28125 25.136719 57.984375 24.839844 57.984375 24.476562 C 57.984375 24.109375 58.28125 23.816406 58.644531 23.816406 L 68.722656 23.816406 C 69.085938 23.816406 69.382812 24.109375 69.382812 24.476562 Z M 69.382812 24.476562 " fill-opacity="1" fill-rule="nonzero"/><path fill="rgb(100%, 100%, 100%)" d="M 67.019531 12.753906 C 66.859375 12.59375 66.597656 12.59375 66.4375 12.753906 L 65.289062 13.898438 C 65.128906 14.058594 65.128906 14.320312 65.289062 14.480469 C 65.449219 14.640625 65.707031 14.636719 65.867188 14.480469 L 67.019531 13.335938 C 67.179688 13.175781 67.179688 12.914062 67.019531 12.753906 Z M 67.019531 12.753906 " fill-opacity="1" fill-rule="nonzero"/><path fill="rgb(100%, 100%, 100%)" d="M 60.347656 12.753906 C 60.507812 12.59375 60.769531 12.59375 60.929688 12.753906 L 62.078125 13.898438 C 62.238281 14.058594 62.238281 14.320312 62.078125 14.480469 C 61.917969 14.640625 61.660156 14.636719 61.5 14.480469 L 60.347656 13.335938 C 60.1875 13.175781 60.1875 12.914062 60.347656 12.753906 Z M 60.347656 12.753906 " fill-opacity="1" fill-rule="nonzero"/><path fill="rgb(100%, 100%, 100%)" d="M 64.089844 13.265625 C 64.089844 13.488281 63.90625 13.667969 63.683594 13.667969 C 63.460938 13.667969 63.277344 13.488281 63.277344 13.265625 L 63.277344 11.695312 C 63.277344 11.472656 63.460938 11.292969 63.683594 11.292969 C 63.90625 11.292969 64.089844 11.472656 64.089844 11.695312 Z M 64.089844 13.265625 " fill-opacity="1" fill-rule="nonzero"/></svg>