<svg xmlns="http://www.w3.org/2000/svg" xmlns:xlink="http://www.w3.org/1999/xlink" width="500" zoomAndPan="magnify" viewBox="0 0 375 374.999991" height="500" preserveAspectRatio="xMidYMid meet" version="1.0"><defs><g/><clipPath id="id1"><path d="M 263.351562 137.699219 L 346.601562 137.699219 L 346.601562 220.949219 L 263.351562 220.949219 Z M 263.351562 137.699219 " clip-rule="nonzero"/></clipPath></defs><g fill="rgb(1.179504%, 59.609985%, 61.959839%)" fill-opacity="1"><g transform="translate(28.385271, 212.249986)"><g><path d="M 10.832031 -2.835938 C 12.554688 -1.316406 14.273438 0.609375 18.324219 0.609375 C 27.539062 0.609375 33.003906 -5.265625 33.003906 -21.058594 C 33.003906 -41.609375 12.65625 -45.761719 12.65625 -62.164062 C 12.65625 -66.3125 14.78125 -70.058594 18.730469 -70.058594 C 21.867188 -70.058594 23.894531 -68.441406 24.804688 -65.707031 L 26.324219 -52.34375 L 30.070312 -52.34375 L 30.070312 -73.402344 L 28.652344 -73.402344 L 26.222656 -70.261719 L 26.019531 -70.058594 C 25.917969 -69.957031 25.816406 -69.957031 25.613281 -69.957031 C 25.3125 -69.957031 25.210938 -69.957031 25.109375 -70.058594 L 24.90625 -70.261719 C 23.691406 -71.984375 20.550781 -73.402344 16.605469 -73.402344 C 8.402344 -73.402344 2.9375 -68.441406 2.9375 -59.023438 C 2.9375 -38.066406 23.082031 -33.207031 23.082031 -13.566406 C 23.082031 -8.300781 21.058594 -3.339844 15.894531 -3.339844 C 11.742188 -3.339844 10.832031 -6.277344 10.328125 -8.300781 L 9.011719 -20.046875 L 5.265625 -20.046875 L 4.859375 1.011719 L 6.582031 1.011719 L 9.515625 -2.835938 L 9.617188 -2.9375 C 9.71875 -3.039062 9.921875 -3.136719 10.125 -3.136719 C 10.328125 -3.136719 10.527344 -3.039062 10.628906 -2.9375 C 10.730469 -2.835938 10.730469 -2.835938 10.832031 -2.835938 Z M 10.832031 -2.835938 "/></g></g></g><g fill="rgb(1.179504%, 59.609985%, 61.959839%)" fill-opacity="1"><g transform="translate(64.122523, 212.249986)"><g><path d="M 34.015625 -72.289062 L 26.121094 -44.851562 L 12.960938 -72.289062 L 3.238281 -72.289062 L 3.238281 -69.757812 L 7.289062 -69.757812 L 7.289062 -2.53125 L 3.238281 -2.53125 L 3.238281 0 L 15.691406 0 L 15.691406 -2.53125 L 11.542969 -2.53125 L 11.542969 -47.988281 L 23.386719 -22.878906 L 34.015625 -61.351562 L 34.015625 -2.429688 L 30.777344 -2.429688 L 30.777344 0 L 46.570312 0 L 46.570312 -2.429688 L 44.140625 -2.429688 L 44.140625 -69.855469 L 46.976562 -69.855469 L 46.976562 -72.289062 Z M 34.015625 -72.289062 "/></g></g></g><g fill="rgb(1.179504%, 59.609985%, 61.959839%)" fill-opacity="1"><g transform="translate(117.171538, 212.249986)"><g><path d="M 13.363281 -2.53125 L 10.125 -2.53125 L 12.757812 -14.78125 L 30.675781 -14.78125 L 32.800781 -2.53125 L 28.957031 -2.53125 L 28.957031 0 L 47.886719 0 L 47.886719 -2.53125 L 44.242188 -2.53125 L 28.855469 -72.289062 L 22.78125 -72.289062 L 5.667969 -2.53125 L 1.316406 -2.53125 L 1.316406 0 L 13.363281 0 Z M 20.652344 -47.078125 L 21.765625 -54.0625 L 29.867188 -17.515625 L 13.769531 -17.515625 Z M 20.652344 -47.078125 "/></g></g></g><g fill="rgb(1.179504%, 59.609985%, 61.959839%)" fill-opacity="1"><g transform="translate(167.284641, 212.249986)"><g><path d="M 42.925781 -2.53125 C 41.308594 -2.53125 40.902344 -4.453125 40.902344 -6.378906 L 40.902344 -19.742188 C 40.902344 -24.90625 38.777344 -28.550781 36.648438 -30.980469 C 35.433594 -32.398438 34.015625 -33.613281 32.398438 -34.625 C 32.195312 -34.726562 32.09375 -34.828125 32.09375 -35.132812 C 32.09375 -35.433594 32.195312 -35.535156 32.5 -35.636719 C 34.015625 -36.347656 35.433594 -37.460938 36.648438 -39.179688 C 38.675781 -42.015625 40.800781 -46.671875 40.800781 -55.175781 C 40.800781 -66.921875 32.09375 -72.289062 22.273438 -72.289062 L 4.757812 -72.289062 L 4.757812 -69.757812 L 8.300781 -69.757812 L 8.300781 -2.53125 L 4.859375 -2.53125 L 4.859375 0 L 20.753906 0 L 20.753906 -2.53125 L 18.527344 -2.53125 L 18.527344 -33.714844 L 22.375 -33.714844 C 27.941406 -33.714844 29.867188 -27.941406 29.867188 -24.296875 C 29.96875 -24.195312 29.96875 -23.894531 29.96875 -23.589844 L 29.96875 -10.328125 C 29.96875 -1.722656 34.21875 1.011719 40.496094 1.011719 C 43.332031 1.011719 45.054688 0.304688 45.558594 -0.507812 L 44.546875 -2.9375 C 44.140625 -2.632812 43.636719 -2.53125 42.925781 -2.53125 Z M 29.867188 -49.101562 C 29.867188 -41.8125 27.132812 -36.449219 22.375 -36.449219 L 18.527344 -36.449219 L 18.527344 -69.554688 L 22.375 -69.554688 C 27.539062 -69.554688 29.867188 -63.277344 29.867188 -57.605469 Z M 29.867188 -49.101562 "/></g></g></g><g fill="rgb(1.179504%, 59.609985%, 61.959839%)" fill-opacity="1"><g transform="translate(216.891548, 212.249986)"><g><path d="M 6.785156 -72.289062 L 3.441406 -72.289062 L 3.441406 -55.175781 L 5.972656 -55.175781 L 6.785156 -59.734375 C 6.785156 -66.113281 11.339844 -69.757812 17.515625 -69.757812 L 18.933594 -69.757812 L 18.933594 -2.734375 L 14.984375 -2.734375 L 14.984375 0 L 33.207031 0 L 33.207031 -2.734375 L 29.359375 -2.734375 L 29.359375 -69.757812 L 30.777344 -69.757812 C 36.851562 -69.757812 41.40625 -66.113281 41.40625 -59.734375 L 42.523438 -55.175781 L 44.75 -55.175781 L 44.75 -72.289062 Z M 6.785156 -72.289062 "/></g></g></g><g clip-path="url(#id1)"><path fill="rgb(1.179504%, 59.609985%, 61.959839%)" d="M 346.582031 179.308594 C 346.582031 180.671875 346.515625 182.03125 346.382812 183.390625 C 346.246094 184.746094 346.046875 186.09375 345.78125 187.429688 C 345.515625 188.765625 345.1875 190.085938 344.789062 191.390625 C 344.394531 192.695312 343.9375 193.976562 343.414062 195.238281 C 342.890625 196.496094 342.308594 197.726562 341.667969 198.929688 C 341.023438 200.132812 340.324219 201.300781 339.566406 202.433594 C 338.808594 203.566406 338 204.660156 337.136719 205.714844 C 336.269531 206.765625 335.355469 207.777344 334.390625 208.738281 C 333.429688 209.703125 332.417969 210.617188 331.367188 211.480469 C 330.3125 212.347656 329.21875 213.15625 328.085938 213.914062 C 326.953125 214.671875 325.785156 215.371094 324.582031 216.015625 C 323.378906 216.65625 322.148438 217.238281 320.890625 217.761719 C 319.628906 218.28125 318.347656 218.742188 317.042969 219.136719 C 315.738281 219.53125 314.417969 219.863281 313.082031 220.128906 C 311.746094 220.394531 310.398438 220.59375 309.042969 220.730469 C 307.683594 220.863281 306.324219 220.929688 304.960938 220.929688 C 303.597656 220.929688 302.238281 220.863281 300.882812 220.730469 C 299.527344 220.59375 298.179688 220.394531 296.84375 220.128906 C 295.503906 219.863281 294.183594 219.53125 292.878906 219.136719 C 291.578125 218.742188 290.292969 218.28125 289.035156 217.761719 C 287.777344 217.238281 286.546875 216.65625 285.34375 216.015625 C 284.140625 215.371094 282.972656 214.671875 281.839844 213.914062 C 280.707031 213.15625 279.613281 212.347656 278.558594 211.480469 C 277.503906 210.617188 276.496094 209.703125 275.53125 208.738281 C 274.570312 207.777344 273.65625 206.765625 272.789062 205.714844 C 271.925781 204.660156 271.113281 203.566406 270.355469 202.433594 C 269.597656 201.300781 268.898438 200.132812 268.257812 198.929688 C 267.613281 197.726562 267.03125 196.496094 266.511719 195.238281 C 265.988281 193.976562 265.53125 192.695312 265.132812 191.390625 C 264.738281 190.085938 264.410156 188.765625 264.140625 187.429688 C 263.875 186.09375 263.675781 184.746094 263.542969 183.390625 C 263.410156 182.03125 263.34375 180.671875 263.34375 179.308594 C 263.34375 177.945312 263.410156 176.585938 263.542969 175.230469 C 263.675781 173.875 263.875 172.527344 264.140625 171.191406 C 264.410156 169.851562 264.738281 168.53125 265.132812 167.226562 C 265.53125 165.925781 265.988281 164.640625 266.511719 163.382812 C 267.03125 162.125 267.613281 160.894531 268.257812 159.691406 C 268.898438 158.488281 269.597656 157.320312 270.355469 156.1875 C 271.113281 155.054688 271.925781 153.960938 272.789062 152.90625 C 273.65625 151.851562 274.570312 150.84375 275.53125 149.878906 C 276.496094 148.917969 277.503906 148.003906 278.558594 147.136719 C 279.613281 146.273438 280.707031 145.460938 281.839844 144.703125 C 282.972656 143.945312 284.140625 143.246094 285.34375 142.605469 C 286.546875 141.960938 287.777344 141.378906 289.035156 140.859375 C 290.292969 140.335938 291.578125 139.878906 292.878906 139.480469 C 294.183594 139.085938 295.503906 138.753906 296.84375 138.488281 C 298.179688 138.222656 299.527344 138.023438 300.882812 137.890625 C 302.238281 137.757812 303.597656 137.691406 304.960938 137.691406 C 306.324219 137.691406 307.683594 137.757812 309.042969 137.890625 C 310.398438 138.023438 311.746094 138.222656 313.082031 138.488281 C 314.417969 138.753906 315.738281 139.085938 317.042969 139.480469 C 318.347656 139.878906 319.628906 140.335938 320.890625 140.859375 C 322.148438 141.378906 323.378906 141.960938 324.582031 142.605469 C 325.785156 143.246094 326.953125 143.945312 328.085938 144.703125 C 329.21875 145.460938 330.3125 146.273438 331.367188 147.136719 C 332.417969 148.003906 333.429688 148.917969 334.390625 149.878906 C 335.355469 150.84375 336.269531 151.851562 337.136719 152.90625 C 338 153.960938 338.808594 155.054688 339.566406 156.1875 C 340.324219 157.320312 341.023438 158.488281 341.667969 159.691406 C 342.308594 160.894531 342.890625 162.125 343.414062 163.382812 C 343.9375 164.640625 344.394531 165.925781 344.789062 167.226562 C 345.1875 168.53125 345.515625 169.851562 345.78125 171.191406 C 346.046875 172.527344 346.246094 173.875 346.382812 175.230469 C 346.515625 176.585938 346.582031 177.945312 346.582031 179.308594 Z M 346.582031 179.308594 " fill-opacity="1" fill-rule="nonzero"/></g><path fill="rgb(100%, 85.099792%, 26.669312%)" d="M 306.019531 167.445312 L 306.019531 175.679688 L 303.90625 175.679688 L 303.90625 167.445312 C 301.632812 166.960938 299.925781 164.941406 299.925781 162.523438 C 299.925781 159.738281 302.179688 157.484375 304.960938 157.484375 C 307.742188 157.484375 310 159.738281 310 162.523438 C 310 164.941406 308.292969 166.960938 306.019531 167.445312 Z M 306.019531 167.445312 " fill-opacity="1" fill-rule="nonzero"/><path fill="rgb(100%, 85.099792%, 26.669312%)" d="M 323.78125 195.191406 C 324.722656 189.605469 324.703125 183.828125 321.945312 178.570312 C 319.050781 172.863281 312.757812 167.796875 304.960938 167.933594 C 297.167969 167.796875 290.875 172.863281 287.980469 178.570312 C 285.222656 183.828125 285.199219 189.601562 286.140625 195.191406 Z M 323.78125 195.191406 " fill-opacity="1" fill-rule="nonzero"/><path fill="rgb(96.078491%, 62.348938%, 25.099182%)" d="M 318.019531 180.632812 L 317.992188 180.574219 C 316.070312 176.789062 311.585938 172.363281 305.269531 172.363281 C 305.246094 172.363281 305.199219 172.363281 305.15625 172.363281 L 305.15625 190.757812 L 319.851562 190.757812 C 320.109375 186.746094 319.507812 183.46875 318.019531 180.632812 Z M 318.019531 180.632812 " fill-opacity="1" fill-rule="nonzero"/><path fill="rgb(96.078491%, 62.348938%, 25.099182%)" d="M 330.605469 197.332031 C 330.605469 198.972656 329.273438 200.304688 327.632812 200.304688 L 282.289062 200.304688 C 280.648438 200.304688 279.320312 198.972656 279.320312 197.332031 C 279.320312 195.691406 280.648438 194.363281 282.289062 194.363281 L 327.632812 194.363281 C 329.273438 194.363281 330.605469 195.691406 330.605469 197.332031 Z M 330.605469 197.332031 " fill-opacity="1" fill-rule="nonzero"/><path fill="rgb(100%, 85.099792%, 26.669312%)" d="M 330.605469 203.273438 C 330.605469 204.914062 329.273438 206.246094 327.632812 206.246094 L 282.289062 206.246094 C 280.648438 206.246094 279.320312 204.914062 279.320312 203.273438 C 279.320312 201.632812 280.648438 200.304688 282.289062 200.304688 L 327.632812 200.304688 C 329.273438 200.304688 330.605469 201.632812 330.605469 203.273438 Z M 330.605469 203.273438 " fill-opacity="1" fill-rule="nonzero"/><path fill="rgb(100%, 100%, 100%)" d="M 319.96875 150.539062 C 319.25 149.816406 318.082031 149.816406 317.359375 150.539062 L 312.183594 155.6875 C 311.464844 156.40625 311.464844 157.574219 312.183594 158.292969 C 312.902344 159.015625 314.074219 159.015625 314.792969 158.292969 L 319.96875 153.148438 C 320.6875 152.425781 320.6875 151.257812 319.96875 150.539062 Z M 319.96875 150.539062 " fill-opacity="1" fill-rule="nonzero"/><path fill="rgb(100%, 100%, 100%)" d="M 289.957031 150.539062 C 290.675781 149.816406 291.84375 149.816406 292.5625 150.539062 L 297.742188 155.6875 C 298.460938 156.40625 298.460938 157.574219 297.742188 158.292969 C 297.019531 159.015625 295.851562 159.015625 295.132812 158.292969 L 289.957031 153.148438 C 289.234375 152.425781 289.234375 151.257812 289.957031 150.539062 Z M 289.957031 150.539062 " fill-opacity="1" fill-rule="nonzero"/><path fill="rgb(100%, 100%, 100%)" d="M 306.785156 152.828125 C 306.785156 153.835938 305.96875 154.652344 304.960938 154.652344 C 303.953125 154.652344 303.136719 153.835938 303.136719 152.828125 L 303.136719 145.777344 C 303.136719 144.769531 303.953125 143.953125 304.960938 143.953125 C 305.96875 143.953125 306.785156 144.769531 306.785156 145.777344 Z M 306.785156 152.828125 " fill-opacity="1" fill-rule="nonzero"/></svg>